<?xml version="1.0" encoding="UTF-8" standalone="no"?>
<!DOCTYPE svg PUBLIC "-//W3C//DTD SVG 1.1//EN" "http://www.w3.org/Graphics/SVG/1.1/DTD/svg11.dtd">
<svg width="100%" height="100%" viewBox="0 0 511 511" version="1.1" xmlns="http://www.w3.org/2000/svg" xmlns:xlink="http://www.w3.org/1999/xlink" xml:space="preserve" xmlns:serif="http://www.serif.com/" style="fill-rule:evenodd;clip-rule:evenodd;stroke-linejoin:round;stroke-miterlimit:2;">
    <g transform="matrix(1,0,0,1,-4204.38,-2185.12)">
        <g id="home-button" transform="matrix(0.962055,0,0,0.957747,210.366,259.993)">
            <rect x="4151.55" y="2010.06" width="530.323" height="532.708" style="fill:none;"/>
            <clipPath id="_clip1">
                <rect x="4151.55" y="2010.06" width="530.323" height="532.708"/>
            </clipPath>
            <g clip-path="url(#_clip1)">
                <g transform="matrix(1.03947,0,0,1.04412,-184.803,-112.194)">
                    <circle cx="4426.78" cy="2287.68" r="255.092"/>
                    <g transform="matrix(0.717634,0,0,0.619536,1321.26,838.561)">
                        <path d="M4272.59,2567.8C4272.59,2573.98 4270.47,2579.9 4266.7,2584.26C4262.94,2588.63 4257.82,2591.08 4252.49,2591.08C4233.22,2591.08 4204.27,2591.08 4184.99,2591.08C4173.89,2591.08 4164.89,2580.66 4164.89,2567.8C4164.89,2516.14 4164.89,2392.41 4164.89,2340.75C4164.89,2327.9 4155.89,2317.47 4144.8,2317.47C4130.53,2317.47 4110.97,2317.47 4094,2317.47C4088.84,2317.47 4084.26,2313.63 4082.65,2307.95C4081.03,2302.27 4082.75,2296.03 4086.91,2292.48C4145.6,2242.34 4275.54,2131.32 4315.5,2097.18C4322.6,2091.12 4332.27,2091.12 4339.36,2097.18C4346.35,2103.15 4355.48,2110.96 4364.14,2118.36C4369.34,2122.79 4376.24,2123.46 4382,2120.1C4387.76,2116.73 4391.39,2109.89 4391.39,2102.41C4391.39,2102.41 4391.39,2102.41 4391.39,2102.41C4391.39,2098.32 4392.8,2094.4 4395.29,2091.51C4397.79,2088.62 4401.18,2086.99 4404.71,2086.99C4417.08,2086.99 4435.69,2086.99 4449.88,2086.99C4460.98,2086.99 4469.97,2097.41 4469.97,2110.27C4469.97,2136.19 4469.97,2177.05 4469.97,2197.01C4469.97,2204.41 4473,2211.36 4478.14,2215.75C4495.91,2230.93 4538.81,2267.58 4567.96,2292.48C4572.11,2296.03 4573.83,2302.27 4572.22,2307.95C4570.6,2313.63 4566.02,2317.47 4560.86,2317.47C4543.89,2317.47 4524.34,2317.47 4510.07,2317.47C4498.97,2317.47 4489.97,2327.9 4489.97,2340.75C4489.97,2392.41 4489.97,2516.14 4489.97,2567.8C4489.97,2580.66 4480.98,2591.08 4469.88,2591.08C4450.6,2591.08 4421.65,2591.08 4402.37,2591.08C4397.04,2591.08 4391.93,2588.63 4388.16,2584.26C4384.39,2579.9 4382.27,2573.98 4382.27,2567.8L4382.27,2415.94C4382.27,2403.09 4373.27,2392.66 4362.18,2392.66L4292.69,2392.66C4281.59,2392.66 4272.59,2403.09 4272.59,2415.94L4272.59,2567.8Z" style="fill:white;"/>
                    </g>
                </g>
            </g>
        </g>
    </g>
</svg>
